<svg width="382" height="92" viewBox="0 0 382 92" fill="none" xmlns="http://www.w3.org/2000/svg">
<g clip-path="url(#clip0_1928_876)">
<path d="M43.975 56.069C45.049 56.2 46.036 55.458 46.203 54.389L46.63 51.65C46.852 50.225 45.867 48.892 44.441 48.676C40.057 48.014 30.84 47.128 22.76 49.659C21.495 50.055 20.718 51.327 20.956 52.631C21.159 53.736 21.335 54.631 21.48 55.334C21.71 56.445 22.794 57.136 23.899 56.876C27.169 56.106 34.352 54.895 43.975 56.069Z" fill="#3E3FEF"/>
<path d="M79.779 65.331C79.233 64.743 78.466 64.409 77.664 64.409H31.591C30.789 64.409 30.022 64.743 29.476 65.331L28.589 66.285C27.739 67.199 28.047 68.673 29.189 69.179C32.873 70.81 41.211 73.382 54.627 73.382C68.044 73.382 76.381 70.81 80.066 69.179C81.208 68.673 81.516 67.199 80.665 66.285L79.779 65.331Z" fill="#3E3FEF"/>
<path d="M86.495 49.658C78.415 47.127 69.198 48.013 64.814 48.676C63.388 48.891 62.403 50.224 62.626 51.649L63.052 54.389C63.219 55.457 64.206 56.199 65.28 56.068C74.903 54.894 82.086 56.105 85.356 56.876C86.461 57.136 87.545 56.445 87.775 55.333C87.92 54.63 88.097 53.736 88.299 52.631C88.537 51.327 87.76 50.054 86.495 49.658Z" fill="#3E3FEF"/>
<path d="M95.399 40.179V76.783C95.399 78.241 94.507 79.484 93.324 79.674C80.484 81.731 67.558 82.76 54.627 82.76C41.7 82.76 28.768 81.731 15.931 79.674C14.748 79.484 13.856 78.241 13.856 76.783V40.179C13.856 38.72 14.748 37.478 15.931 37.288C22.06 36.305 28.208 35.565 34.367 35.053C35.635 34.947 36.859 35.548 37.563 36.607L39.312 39.238C39.938 40.181 40.994 40.747 42.126 40.747C50.42 41.909 58.836 41.909 67.13 40.747C68.368 40.611 69.482 39.933 70.171 38.896L71.692 36.607C72.396 35.548 73.62 34.947 74.888 35.053C81.048 35.565 87.197 36.305 93.324 37.288C94.507 37.478 95.399 38.72 95.399 40.179ZM33.654 9.505C39.495 10.181 46.818 10.769 54.628 10.769C69.197 10.769 82.078 8.724 86.782 7.879C87.506 7.749 88.227 8.139 88.495 8.825C89.175 10.561 89.736 13.929 88.889 18.417C88.028 22.973 86.259 25.803 85.161 26.885C84.923 27.119 84.462 27.34 84.13 27.377C83.765 27.417 83.397 27.416 83.032 27.375C66.802 25.537 50.475 25.282 34.218 26.602C33.528 26.658 32.986 26.046 33.117 25.367C33.497 23.392 33.647 21.217 33.535 18.937C33.407 16.326 32.945 13.692 32.194 11.251C31.906 10.315 32.682 9.393 33.654 9.505ZM24.764 15.316H20.467C20.193 15.316 19.965 15.097 19.954 14.823C19.844 11.855 20.365 9.661 20.903 8.484C21.221 7.789 22.124 7.604 22.666 8.143C23.4 8.874 24.357 10.619 25.267 14.692C25.338 15.012 25.092 15.316 24.764 15.316ZM107.128 46.75L104.981 45.323C104.266 44.848 103.837 44.047 103.837 43.189V40.179C103.837 34.529 99.978 29.81 94.66 28.956C94.433 28.92 94.206 28.886 93.979 28.853C93.586 28.795 93.38 28.366 93.566 28.015C94.886 25.524 95.841 22.636 96.371 19.83C97.68 12.899 96.675 6.399 93.747 2.867C92.302 1.124 90.384 0.127003 88.311 0.00900317C88.098 -0.00299683 87.64 -0.0139982 87.119 0.0670018C86.659 0.137002 71.621 3.155 54.628 3.155C39.445 3.155 22.267 0.0380034 21.412 0.0120034C21.234 0.00700343 21.082 -0.00599683 20.938 0.00900317C18.868 0.129003 16.952 1.126 15.508 2.867C12.587 6.391 11.58 12.871 12.876 19.786C13.217 21.601 14.779 22.931 16.626 22.931H24.989C25.425 22.931 25.754 23.33 25.677 23.759C25.457 24.973 25.138 25.907 24.831 26.561C24.573 27.109 24.079 27.51 23.499 27.688C23.499 27.688 18.37 28.351 14.595 28.956C9.27799 29.81 5.41799 34.529 5.41799 40.179V43.189C5.41799 44.047 4.98899 44.848 4.27399 45.323L2.12699 46.75C1.33599 47.276 0.792995 48.11 0.659995 49.051C-0.218005 55.294 -0.22001 61.629 0.65499 67.872C0.65499 68.722 1.08099 69.516 1.78799 69.986L4.27399 71.638C4.98899 72.113 5.41799 72.914 5.41799 73.772V76.783C5.41799 82.432 9.27699 87.152 14.595 88.005C41.159 92.263 68.096 92.263 94.66 88.005C99.977 87.152 103.837 82.432 103.837 76.783V73.773C103.837 72.914 104.266 72.113 104.981 71.638L107.467 69.986C108.175 69.515 108.6 68.722 108.6 67.872C109.475 61.629 109.473 55.294 108.595 49.051C108.463 48.11 107.919 47.276 107.128 46.75Z" fill="#3E3FEF"/>
<path d="M139.111 36.11C140.183 34.95 141.441 34.041 142.886 33.384C144.331 32.728 145.95 32.4 147.745 32.4C150.415 32.4 152.572 32.936 154.213 34.008C155.526 34.867 156.651 35.97 157.587 37.318C157.985 37.893 158.731 38.106 159.341 37.763L165.544 34.274C166.199 33.906 166.407 33.081 166.045 32.423C165.055 30.619 163.77 29.035 162.192 27.672C160.265 26.009 158.098 24.74 155.691 23.863C153.283 22.987 150.766 22.55 148.14 22.55C144.9 22.55 141.891 23.141 139.111 24.323C136.33 25.504 133.89 27.147 131.789 29.247C129.687 31.349 128.046 33.789 126.864 36.569C125.681 39.35 125.09 42.337 125.09 45.532C125.09 48.772 125.681 51.794 126.864 54.594C128.046 57.397 129.687 59.837 131.789 61.916C133.89 63.996 136.33 65.626 139.111 66.808C141.891 67.991 144.9 68.582 148.14 68.582C150.766 68.582 153.283 68.143 155.691 67.267C158.098 66.393 160.265 65.123 162.192 63.46C163.77 62.096 165.055 60.513 166.045 58.709C166.407 58.05 166.199 57.226 165.544 56.858L159.316 53.354C158.721 53.02 157.994 53.23 157.608 53.792C156.697 55.12 155.577 56.229 154.246 57.122C152.581 58.238 150.415 58.796 147.745 58.796C145.95 58.796 144.32 58.469 142.853 57.812C141.386 57.155 140.128 56.235 139.078 55.055C138.026 53.872 137.206 52.472 136.614 50.852C136.025 49.233 135.729 47.46 135.729 45.532C135.729 43.652 136.025 41.899 136.614 40.279C137.206 38.66 138.037 37.27 139.111 36.11Z" fill="#3E3FEF"/>
<path d="M209.191 23.47H201.436C200.842 23.47 200.319 23.861 200.151 24.43L190.453 57.221C190.365 57.528 190.246 57.758 190.092 57.912C189.939 58.064 189.731 58.141 189.469 58.141C189.206 58.141 188.997 58.064 188.845 57.912C188.691 57.758 188.549 57.528 188.417 57.221L178.656 24.428C178.487 23.86 177.964 23.47 177.371 23.47H169.613C168.711 23.47 168.067 24.343 168.332 25.205L179.093 60.177C179.968 63.023 181.237 65.145 182.902 66.546C184.565 67.947 186.732 68.648 189.403 68.648C192.116 68.648 194.296 67.947 195.937 66.546C197.578 65.145 198.836 63.023 199.712 60.177L210.472 25.205C210.738 24.343 210.093 23.47 209.191 23.47Z" fill="#3E3FEF"/>
<path d="M232.613 34.945C231.992 34.718 231.315 34.537 230.582 34.403C229.508 34.206 228.425 34.107 227.331 34.107C224.004 34.107 221.257 34.775 219.091 36.11C216.923 37.445 215.292 39.24 214.198 41.495C213.104 43.749 212.557 46.299 212.557 49.145V66.321C212.557 67.062 213.157 67.662 213.898 67.662H221.262C222.003 67.662 222.603 67.062 222.603 66.321V49.472C222.603 47.678 223.117 46.266 224.147 45.237C225.175 44.21 226.543 43.694 228.25 43.694C229.126 43.694 230.013 43.804 230.91 44.023C231.807 44.241 232.651 44.57 233.439 45.007V36.185C233.439 35.643 233.122 35.131 232.613 34.945Z" fill="#3E3FEF"/>
<path d="M260.012 55.252C259.355 56.434 258.457 57.376 257.319 58.076C256.181 58.777 254.846 59.126 253.313 59.126C251.824 59.126 250.5 58.777 249.34 58.076C248.18 57.376 247.273 56.434 246.616 55.252C245.958 54.07 245.63 52.779 245.63 51.378C245.63 49.933 245.958 48.619 246.616 47.438C247.273 46.256 248.18 45.314 249.34 44.615C250.5 43.915 251.824 43.563 253.313 43.563C254.846 43.563 256.181 43.915 257.319 44.615C258.457 45.314 259.355 46.256 260.012 47.438C260.668 48.619 260.996 49.933 260.996 51.378C260.996 52.779 260.668 54.07 260.012 55.252ZM262.375 36.439C259.704 34.886 256.684 34.108 253.313 34.108C249.942 34.108 246.921 34.886 244.251 36.439C241.581 37.993 239.457 40.062 237.882 42.645C236.307 45.228 235.518 48.117 235.518 51.312C235.518 54.464 236.307 57.354 237.882 59.98C239.457 62.607 241.581 64.698 244.251 66.251C246.921 67.804 249.942 68.582 253.313 68.582C256.684 68.582 259.704 67.804 262.375 66.251C265.045 64.698 267.158 62.607 268.712 59.98C270.266 57.354 271.042 54.464 271.042 51.312C271.042 48.117 270.266 45.228 268.712 42.645C267.158 40.062 265.045 37.993 262.375 36.439Z" fill="#3E3FEF"/>
<path d="M300.881 55.252C300.225 56.434 299.326 57.376 298.189 58.076C297.05 58.777 295.715 59.126 294.184 59.126C292.695 59.126 291.369 58.777 290.211 58.076C289.05 57.376 288.142 56.434 287.486 55.252C286.829 54.07 286.5 52.779 286.5 51.378C286.5 49.977 286.829 48.685 287.486 47.503C288.142 46.322 289.05 45.369 290.211 44.648C291.369 43.924 292.695 43.563 294.184 43.563C295.715 43.563 297.05 43.924 298.189 44.648C299.326 45.369 300.225 46.322 300.881 47.503C301.538 48.685 301.867 49.977 301.867 51.378C301.867 52.779 301.538 54.07 300.881 55.252ZM303.771 36.307C301.188 34.842 298.166 34.108 294.709 34.108C292.476 34.108 290.363 34.622 288.373 35.65C287.699 35.998 287.086 36.396 286.5 36.816V24.811C286.5 24.071 285.9 23.47 285.16 23.47H277.795C277.054 23.47 276.454 24.071 276.454 24.811V51.443C276.454 54.683 277.22 57.606 278.753 60.209C280.284 62.814 282.386 64.861 285.055 66.35C287.725 67.837 290.769 68.582 294.184 68.582C297.554 68.582 300.585 67.804 303.279 66.251C305.97 64.698 308.093 62.618 309.647 60.013C311.201 57.409 311.979 54.552 311.979 51.443C311.979 47.985 311.256 44.965 309.813 42.382C308.368 39.799 306.354 37.774 303.771 36.307Z" fill="#3E3FEF"/>
<path d="M340.432 55.252C339.775 56.434 338.877 57.376 337.739 58.076C336.601 58.777 335.266 59.126 333.733 59.126C332.244 59.126 330.92 58.777 329.76 58.076C328.6 57.376 327.693 56.434 327.035 55.252C326.378 54.07 326.05 52.779 326.05 51.378C326.05 49.933 326.378 48.619 327.035 47.438C327.693 46.256 328.6 45.314 329.76 44.615C330.92 43.915 332.244 43.563 333.733 43.563C335.266 43.563 336.601 43.915 337.739 44.615C338.877 45.314 339.775 46.256 340.432 47.438C341.088 48.619 341.416 49.933 341.416 51.378C341.416 52.779 341.088 54.07 340.432 55.252ZM342.795 36.439C340.124 34.886 337.104 34.108 333.733 34.108C330.362 34.108 327.34 34.886 324.671 36.439C322.001 37.993 319.877 40.062 318.302 42.645C316.727 45.228 315.937 48.117 315.937 51.312C315.937 54.464 316.727 57.354 318.302 59.98C319.877 62.607 322.001 64.698 324.671 66.251C327.34 67.804 330.362 68.582 333.733 68.582C337.104 68.582 340.124 67.804 342.795 66.251C345.465 64.698 347.578 62.607 349.132 59.98C350.686 57.354 351.462 54.464 351.462 51.312C351.462 48.117 350.686 45.228 349.132 42.645C347.578 40.062 345.465 37.993 342.795 36.439Z" fill="#3E3FEF"/>
<path d="M371.346 41.852H379.959C380.7 41.852 381.3 41.252 381.3 40.511V34.722C381.3 33.981 380.7 33.381 379.959 33.381H371.346C370.605 33.381 370.005 32.781 370.005 32.041V24.811C370.005 24.07 369.405 23.47 368.665 23.47H361.3C360.559 23.47 359.959 24.07 359.959 24.811V32.041C359.959 32.781 359.359 33.381 358.618 33.381H355.456C354.716 33.381 354.115 33.981 354.115 34.722V40.511C354.115 41.252 354.716 41.852 355.456 41.852H358.618C359.359 41.852 359.959 42.452 359.959 43.193V54.464C359.959 57.222 360.495 59.674 361.567 61.819C362.64 63.963 364.261 65.638 366.427 66.842C368.593 68.045 371.296 68.648 374.536 68.648C375.675 68.648 376.879 68.516 378.149 68.254C379.026 68.072 379.798 67.839 380.466 67.553C380.969 67.338 381.3 66.853 381.3 66.305V60.169C381.3 59.25 380.39 58.664 379.52 58.958C379.189 59.07 378.841 59.17 378.476 59.258C377.382 59.52 376.376 59.651 375.456 59.651C373.793 59.651 372.469 59.17 371.483 58.207C370.499 57.244 370.005 55.887 370.005 54.136V43.193C370.005 42.452 370.605 41.852 371.346 41.852Z" fill="#3E3FEF"/>
</g>
<defs>
<clipPath id="clip0_1928_876">
<rect width="382" height="92" fill="white"/>
</clipPath>
</defs>
</svg>
